<?xml version="1.0" encoding="utf-8"?>
<!-- Generator: Adobe Illustrator 15.0.0, SVG Export Plug-In . SVG Version: 6.00 Build 0)  -->
<!DOCTYPE svg PUBLIC "-//W3C//DTD SVG 1.1//EN" "http://www.w3.org/Graphics/SVG/1.1/DTD/svg11.dtd">
<svg version="1.1" id="Layer_1" xmlns="http://www.w3.org/2000/svg" xmlns:xlink="http://www.w3.org/1999/xlink" x="0px" y="0px"
	 width="16px" height="16px" viewBox="888 888 16 16" enable-background="new 888 888 16 16" xml:space="preserve">
<path fill="#828282" d="M892.477,901.636c0,0.587-0.206,1.086-0.617,1.497s-0.91,0.616-1.497,0.616
	c-0.587,0-1.086-0.205-1.497-0.616s-0.616-0.91-0.616-1.497c0-0.588,0.205-1.086,0.616-1.497s0.91-0.616,1.497-0.616
	c0.587,0,1.086,0.205,1.497,0.616S892.477,901.048,892.477,901.636z M898.112,902.989c0.015,0.206-0.047,0.382-0.188,0.528
	c-0.132,0.154-0.305,0.231-0.518,0.231h-1.485c-0.184,0-0.341-0.061-0.474-0.182c-0.132-0.121-0.205-0.273-0.22-0.457
	c-0.161-1.68-0.838-3.117-2.031-4.309c-1.192-1.193-2.629-1.87-4.309-2.031c-0.184-0.015-0.336-0.088-0.457-0.22
	c-0.121-0.133-0.182-0.29-0.182-0.474v-1.486c0-0.213,0.077-0.385,0.231-0.518c0.124-0.125,0.282-0.187,0.473-0.187h0.056
	c1.174,0.095,2.296,0.391,3.368,0.886c1.072,0.495,2.022,1.161,2.851,1.998c0.837,0.829,1.503,1.779,1.997,2.852
	C897.722,900.692,898.017,901.815,898.112,902.989z M903.748,903.012c0.015,0.198-0.051,0.37-0.197,0.517
	c-0.133,0.147-0.301,0.221-0.508,0.221h-1.573c-0.19,0-0.354-0.064-0.49-0.192c-0.136-0.129-0.207-0.284-0.214-0.468
	c-0.089-1.578-0.459-3.076-1.112-4.496c-0.653-1.421-1.502-2.653-2.549-3.699c-1.045-1.045-2.277-1.895-3.698-2.548
	c-1.42-0.653-2.918-1.027-4.497-1.122c-0.184-0.007-0.339-0.079-0.468-0.215c-0.128-0.136-0.192-0.295-0.192-0.479v-1.574
	c0-0.205,0.073-0.374,0.221-0.506c0.132-0.132,0.293-0.198,0.483-0.198h0.033c1.923,0.096,3.763,0.536,5.521,1.321
	c1.757,0.785,3.318,1.864,4.684,3.236c1.372,1.365,2.451,2.926,3.236,4.683C903.213,899.249,903.652,901.089,903.748,903.012z"/>
</svg>
