<?xml version="1.0" encoding="utf-8"?>
<!-- Generator: Adobe Illustrator 15.0.0, SVG Export Plug-In . SVG Version: 6.00 Build 0)  -->
<!DOCTYPE svg PUBLIC "-//W3C//DTD SVG 1.1//EN" "http://www.w3.org/Graphics/SVG/1.1/DTD/svg11.dtd">
<svg version="1.1" id="Layer_1" xmlns="http://www.w3.org/2000/svg" xmlns:xlink="http://www.w3.org/1999/xlink" x="0px" y="0px"
	 width="16px" height="16px" viewBox="0 0 16 16" enable-background="new 0 0 16 16" xml:space="preserve">
<path id="path3298" fill="#828282" d="M2.263,0.98
	L0.25,3.345v0.672c0,0.854,0.785,1.604,1.497,1.604c0.855,0,1.568-0.721,1.568-1.577c0,0.856,0.688,1.577,1.543,1.577
	c0.855,0,1.522-0.721,1.522-1.577c0,0.856,0.732,1.577,1.587,1.577c0.855,0,1.564-0.721,1.564-1.577
	c0,0.856,0.692,1.577,1.547,1.577c0.855,0,1.52-0.721,1.52-1.577c0,0.856,0.734,1.577,1.59,1.577S15.75,4.9,15.75,4.044v-0.7
	L13.561,0.98C9.738,0.97,2.263,0.98,2.263,0.98L2.263,0.98z"/>
<path id="path3116" fill="#828282" d="
	M3.315,5.227C3.234,5.372,3.12,5.497,3.002,5.613C2.68,5.934,2.235,6.134,1.747,6.134c-0.125,0-0.446-0.074-0.446-0.074v8.756
	h13.485V6.01c-0.201,0.08-0.37,0.124-0.599,0.124c-0.488,0-0.933-0.2-1.256-0.521c-0.117-0.117-0.217-0.25-0.3-0.394
	c-0.081,0.146-0.183,0.277-0.3,0.394c-0.323,0.321-0.766,0.521-1.254,0.521c-0.487,0-0.932-0.2-1.257-0.521
	c-0.115-0.117-0.218-0.25-0.3-0.394C9.44,5.365,9.339,5.497,9.224,5.613C8.899,5.934,8.456,6.134,7.967,6.134
	c-0.487,0-0.934-0.2-1.256-0.521c-0.117-0.116-0.217-0.25-0.298-0.394c-0.081,0.146-0.184,0.277-0.3,0.394
	C5.789,5.934,5.346,6.134,4.858,6.134s-0.933-0.2-1.256-0.521C3.485,5.497,3.396,5.372,3.315,5.227L3.315,5.227z M5.255,6.845
	c0.588,0,1.007,0.382,1.155,0.955h3.251c0.147-0.573,0.563-0.955,1.153-0.955c0.933,0,1.961,0.96,2.281,2.131l0.765,2.798
	c0.322,1.174-0.181,2.135-1.116,2.135c-0.82,0-1.712-0.74-2.134-1.714H5.458c-0.423,0.974-1.314,1.714-2.134,1.714
	c-0.935,0-1.438-0.961-1.116-2.135l0.766-2.798C3.293,7.805,4.321,6.845,5.255,6.845z"/>
<path id="path3286" fill="#828282" d="M6.882,9.327l-1.099,1.177
	h1.083v1.215h2.155v-1.215h1.154L9.077,9.327L7.98,8.148L6.882,9.327z"/>
</svg>
