<?xml version="1.0" encoding="utf-8"?>
<!-- Generator: Adobe Illustrator 15.0.0, SVG Export Plug-In . SVG Version: 6.00 Build 0)  -->
<!DOCTYPE svg PUBLIC "-//W3C//DTD SVG 1.1//EN" "http://www.w3.org/Graphics/SVG/1.1/DTD/svg11.dtd">
<svg version="1.1" id="Layer_1_xA0_Image_1_" xmlns="http://www.w3.org/2000/svg" xmlns:xlink="http://www.w3.org/1999/xlink"
	 x="0px" y="0px" width="36px" height="36px" viewBox="0 0 36 36" enable-background="new 0 0 36 36" xml:space="preserve">
<path d="M30,11v-1h-1V9h-1V8h-1V7h-1V6h-1V5h-1V4h-1V3h-1V2h-1V1h-1v19h-1v1h-1v1h-1v1h-1v1h-1v1h-1v1h-1v1h-1v1h-1v1h-1v1H9v1H8v1
	H7v1H6v1H5v1h3v-1h1v-1h1v-1h1v-1h1v-1h8v5h1v-1h1V20h1v-1h1v-1h1v-1h1v-1h1v-1h1v-1h1v-1h1v-1h1v-1H30z M20,28h-5v-1h1v-1h1v-1h1
	v-1h1v-1h1V28z M28,12h-1v1h-1v1h-1v1h-1v1h-1v1h-1V6h1v1h1v1h1v1h1v1h1v1h1V12z"/>
</svg>
